<?xml version="1.0" encoding="UTF-8"?>
<svg id="uuid-d453d310-cf12-4a1c-aa22-8f6f759564ab" data-name="Layer 1" xmlns="http://www.w3.org/2000/svg" viewBox="0 0 283.46 191.8">
  <path d="M71.07,81.26l14.88-23.12h12.72l-22.32,32.87v23.12h-10.56v-23.12l-21.52-32.87h12.56l14.24,23.12Z" style="fill: #fff;"/>
  <path d="M194.37,120.53c-.83,2.7-1.73,5.16-2.52,5.84l-.66.57c-2.42,2.06-4.51,3.84-7.51,9.37-2.1,3.88-4.42,8.48-6.12,11.84-.64,1.27-1.21,2.4-1.67,3.29-.5.97-.83,1.83-1.1,2.53-.11.3-.26.68-.37.92-.18.05-.53.13-1.11.2l-.15.02-.15.03c-5.01.86-6.67,1.67-9.66,3.28-.37.2-.78.42-1.23.65-.38.2-.98.52-1.53.78-.12-.22-.24-.44-.36-.65-.87-1.6-2.34-4.28-5.6-4.28-.93,0-2.32.25-3.67,1.49-.56.52-1.26,1.16-2.61,1.16-.83,0-1.8-.23-2.88-.7-1.85-.79-3.45-1.37-4.86-1.89-1.32-.48-2.93-1.07-3.53-1.46-.24-.87-.54-2.27-.84-3.62-1.41-6.43-2.06-9.37-4.76-10.72-.42-.21-.87-.36-1.33-.46-.24-2.44-1.01-4.51-3.02-5.54.76-2.62.89-4.76-.11-6.68l-.5-.96-.88-.64c-.93-.68-1.95-1.02-3.02-1.02s-3.57.35-4.74,3.65c-.15.42-.29.82-1.21,1.5-1.06.79-1.92,1.55-2.63,2.26-.23-.41-.49-.84-.79-1.29-1-1.5-2-2.79-2.8-3.82-.56-.72-1.32-1.7-1.51-2.07-1.72-4.64-10.49-7.57-14.95-7.91l-.55-.04c-1.24-.1-2.64-.2-4.23-.2-3.67,0-9.23.51-19.86,4.45-.5.14-.98.26-1.45.39-5.93,1.57-10.21,2.71-13.11,7.92-.59,1.06-.89,1.49-1.03,1.67-.5.15-1.86.3-3.07.43-.69.07-1.4.12-2.16.18-4.44.3-9.95.68-17.59,6.55-2.38,1.59-4.46,2.4-6.2,2.4-1.51,0-3.01-.61-4.72-1.91l-.05-.04.04-.07c1.73-3.22,3.46-8.5-1.52-17.24-2.83-4.97-4.81-9.34-6.4-12.84-1-2.21-1.87-4.12-2.72-5.68-.6-1.1-1.27-2.06-1.88-2.86.74-.67,1.42-1.61,1.68-2.95.54-2.73-1.18-4.77-1.74-5.44-1.31-1.56-2.81-3.88-2.74-7.97.04-2.35.05-3.87.04-4.97,1.83-.81,2.7-2.57,3.05-3.26.12-.25.24-.48.39-.72,1.94-.39,2.99-1.73,3.75-2.71.97-1.24,2.3-2.95,5.35-3.76,5.87-1.57,14.21-4.61,18.64-7.56,6.67-4.45,10.19-9.8,10.17-15.5.73.38,1.55.64,2.52.64,1.65,0,3.18-.82,4.09-2.18.71-1.06,1.09-2.24,1.15-3.45,3.7-1.48,4.04-5.11,3.98-6.78.18-.6,2.09-2.27,3.49-3.5.35-.3.71-.62,1.08-.95,1.8-1.59,3.53-2.48,4.53-2.8,1.93,3.23,4.16,6.11,7.55,6.11.3,0,.6-.03.91-.08.55-.09.95-.21,1.24-.31.07,0,.18,0,.32,0,.23,0,.49,0,.81.02.41.01.76.04,1.07.06.42.03.81.06,1.22.06,2.37,0,3.73-1.08,4.45-1.98,1.66-2.07,1.12-4.52.89-5.57-.1-.43-.19-.8-.28-1.11.76-1.02,2.11-2.76,3.32-4.31,1.06-1.36,1.76-2.27,2.23-2.88.35-.07.79-.13,1.14-.13h.05c.37.05.78.07,1.21.07,1.21,0,5.35-.18,7.51-2.53.44-.47.78-1,1.01-1.57,5.43,2.29,9.43,3.76,11.94,4.09l-.16,1.12c-.28,2.01-1.26,4.51-1.94,4.96l-5.84,3.81,5.76,3.92c7.82,5.32,20.17,13.81,22.11,15.38,1.64,1.33,3.56,2.04,5.53,2.04,3.23,0,9-1.89,11.45-14.56.94-5.15,1-7.51,1.05-9.23.04-1.6.07-2.49,1.09-5.87.29-.94.67-2.19,1.07-3.43l.05.1c1.66,3.26,1.89,5.83,1.89,8.12,0,.24,0,.46,0,.65-.05,4.52,1.91,6.59,6.54,6.92,1.3.09,1.9,3.52,2.05,4.57.02.14,1.76,11.3,3.96,17.94h4.93c-1.44-3.63-3.44-12.72-4.29-18.6-.98-6.76-3.83-8.36-6.32-8.54-2.49-.18-2.22-.27-2.22-2.94s-.27-6.05-2.4-10.23c-2.07-4.06-1.55-6.77-3.7-6.77h-.21c-2.4.36-3.51,3.39-5.78,10.86-2.27,7.48-.4,5.34-2.27,15.62-1.55,8.05-4.37,10.75-6.87,10.75-.94,0-1.84-.38-2.6-1-2.8-2.27-22.42-15.62-22.42-15.62,3.2-2.09,4-8.23,4-8.23,0,0,.8-.09,2.14-1.6,1.34-1.51,2.4-2.31,1.87-3.56-.48-1.13-1.78-2.26-2.48-2.26l-.19.04c-.57.24-1.74,1.09-4.2,1.09-.22,0-.45,0-.7-.02-2.94-.18-12.37-4.36-15.66-5.78-.68-.3-1.26-.42-1.73-.42-1.81,0-2.21,1.78-2,2.55.27.98,2.22,1.07,2.31,2.14.08.93-2.63,1.46-4.26,1.46-.24,0-.45-.01-.63-.03-.19-.02-.4-.04-.63-.04-1.52,0-3.8.5-4.27,1.19-.53.8-4.98,6.41-6.41,8.36-1.42,1.96-.8,2.14-.27,4.54.35,1.58.16,1.89-.8,1.89-.5,0-1.2-.08-2.14-.11-.38-.01-.7-.02-.96-.02-1.68,0-1.41.22-2.33.37h-.14c-1.05.01-2.43-1.83-4.13-4.81-.58-1.02-1.55-1.44-2.72-1.44-2.43,0-5.73,1.83-8.31,4.11-3.83,3.38-6.23,5.16-6.14,8.1.09,2.94-1.78,2.23-2.76,2.76-.98.53-2.22,1.16-1.6,2.23.62,1.07.36,1.96,0,2.49l-.22.12c-.54,0-1.72-1.17-3.16-2.07-.27-.17-.56-.26-.86-.26-1.52,0-3.15,2.27-3.15,6.22.09,5.34-4.63,9.43-8.1,11.75-3.47,2.31-10.95,5.25-17.26,6.94-6.32,1.69-7.92,6.23-8.81,6.41-.89.18-2.22.71-3.11,2.22-.7,1.18-.9,2.09-1.47,2.09-.16,0-.34-.07-.58-.23-.31-.21-.62-.31-.89-.31-.67,0-1.16.6-1.16,1.73C0,76.49.09,77.38,0,82.81c-.09,5.43,1.96,8.81,3.83,11.03,1.87,2.22-.09,2.05-1.96,3.47-1.87,1.42,1.33,3.29,3.38,7.03,2.05,3.74,4.45,10.32,9.17,18.6,4.72,8.28,1.87,11.84,1.25,13.17-.62,1.34-1.69,2.94,1.42,5.52,2.38,1.83,4.84,2.93,7.62,2.93,2.63,0,5.55-.99,8.93-3.28,7.83-6.05,12.64-5.34,17.53-5.87,4.89-.53,5.52-.62,7.65-4.45s5.34-4.36,11.92-6.14c9.4-3.51,14.56-4.24,18.44-4.24,1.63,0,3.03.13,4.43.23,4.72.36,10.41,3.38,10.94,4.89.53,1.51,2.67,3.65,4.81,6.85,2.14,3.2,1.42,4.36,2.05,5.34.26.41.81.55,1.39.55.83,0,1.73-.29,1.99-.55.44-.44,1.16-2.58,4.63-5.16,3.02-2.25,2.67-4.23,3.18-4.23.07,0,.17.04.29.14.98,1.87-2.4,8.54-2.76,10.23-.23,1.11.53,1.99,1.45,1.99.49,0,1.02-.24,1.48-.83,1.25-1.58,1.41-2.78,1.79-2.78l.08.02c.44.18.71,2.23.62,4.81-.04,1.13.48,1.41,1.17,1.41.33,0,.71-.07,1.08-.13.37-.07.73-.13,1.04-.13.2,0,.39.03.53.1,1.07.53,2.4,8.72,3.29,11.75.89,3.03,4.72,3.38,10.94,6.05,1.82.78,3.39,1.07,4.71,1.07,3.21,0,5.03-1.72,5.79-2.41.18-.16.34-.24.49-.24.78,0,1.37,1.88,2.71,3.88.7,1.06,1.44,1.49,2.35,1.49,1.16,0,2.6-.71,4.59-1.76,3.56-1.87,4.36-2.58,9.52-3.47,5.07-.53,4.54-2.85,6.23-6.14,1.69-3.29,4.89-9.79,7.74-15.04,2.85-5.25,4.54-6.41,7.12-8.63,1.84-1.59,3.1-5.09,4.34-9.36h-4.85Z" style="fill: #f16824;"/>
  <path d="M153.13,174.23s1.02-1.15,4.16.53c3.14,1.68,3.89,2.21,6.81,1.11,2.92-1.11,5-.4,5.13,2.35.13,2.74-1.06,8.68-6.2,12.97-2.66,1.33-6.2.75-7.61-3.81-1.42-4.56-1.77-6.55-2.83-9.2-1.06-2.66.53-3.94.53-3.94Z" style="fill: #fff;"/>
  <polygon points="24.86 81.15 26.33 85.66 31.07 85.66 27.23 88.45 28.7 92.95 24.86 90.17 21.03 92.95 22.49 88.45 18.66 85.66 23.4 85.66 24.86 81.15" style="fill: #fff;"/>
  <polygon points="137.16 7.28 138.01 9.89 140.75 9.89 138.53 11.51 139.38 14.12 137.16 12.5 134.94 14.12 135.78 11.51 133.56 9.89 136.31 9.89 137.16 7.28" style="fill: #fff;"/>
  <polygon points="106.69 40.07 107.54 42.68 110.28 42.68 108.06 44.3 108.91 46.91 106.69 45.29 104.47 46.91 105.32 44.3 103.1 42.68 105.84 42.68 106.69 40.07" style="fill: #fff;"/>
  <polygon points="61.05 0 61.9 2.61 64.65 2.61 62.43 4.22 63.28 6.83 61.05 5.22 58.83 6.83 59.68 4.22 57.46 2.61 60.21 2.61 61.05 0" style="fill: #fff;"/>
  <path d="M63.13,51.78c-.11-.07-1.12-.36-.8-1.09.33-.72,1.88-1.05,3.07.04,1.19,1.08,2.6,1.66,2.06,0-.54-1.67-1.38-4.59-1.7-6.29-.33-1.7.29-1.95.83-1.66.54.29.9,1.37,1.38,2.53.47,1.16.98,2.17,1.27,1.95.29-.22-.18-3.76.11-4.7.29-.94,1.52-.91,1.66-.47.14.43.07,5.28.36,5.61.29.32,1.01-1.74,1.88-3.4.87-1.66,1.45-1.12,1.63-.65.18.47-.47,2.86-.94,3.83-.47.98.25,1.01.69.72.43-.29,1.92-2.21,2.57-2.06.65.15.33,1.23-.33,2.03-.65.8-1.74,2.03-1.63,2.97.11.94-.43,4.63-1.81,5.75-1.37,1.12-5.03.69-6.62-1.95-1.59-2.64-3.25-2.89-3.69-3.15Z" style="fill: #f16824;"/>
  <path d="M36.36,109.62c-.17-.1-1.69-.54-1.2-1.63.49-1.09,2.83-1.58,4.63.05,1.8,1.64,3.92,2.51,3.11,0-.82-2.51-2.07-6.92-2.56-9.48-.49-2.56.43-2.94,1.25-2.51.82.44,1.36,2.07,2.07,3.81.71,1.74,1.47,3.27,1.91,2.94.44-.33-.27-5.67.16-7.08.44-1.42,2.29-1.36,2.51-.71.22.65.11,7.96.55,8.45.44.49,1.52-2.62,2.83-5.12,1.31-2.51,2.18-1.69,2.45-.98.27.71-.71,4.31-1.42,5.78-.71,1.47.38,1.52,1.03,1.09.65-.43,2.89-3.32,3.87-3.1.98.22.49,1.85-.49,3.05-.98,1.2-2.61,3.05-2.45,4.47.16,1.42-.65,6.97-2.73,8.66-2.07,1.69-7.57,1.03-9.97-2.94-2.4-3.98-4.9-4.36-5.56-4.74Z" style="fill: #f16824;"/>
  <path d="M194.48,178.95s-.22-1.03.26-1.33c.48-.29.85,0,1.48,0s1.73,1.66,2.18,2.21c.44.55-1.03-.07-1.33.11-.3.18.37.74.85.81.48.07.78.03.81.44.04.4-.55.59-1.25.63-.7.04-1.11.48-1.59.66-.48.18-.77.37-1.25-.04-.48-.41-.59-.04-.59.15s-.63.74-1.22.78c-.59.03-.59-.7.04-.96.63-.26.59-.41.59-.78s-.04-.77.44-.81c.48-.04.41-.26.44-.52.04-.26.63-.15.55-.48-.07-.33-.52-.63-.4-.89Z" style="fill: #fff;"/>
  <path d="M235.4,116.14c.87,0,1.65.53,1.65.53.19.34,0,.38-.35.38h-.13s-.14,0-.14,0c-.19,0-.4,0-.61.05-.75.16-.75.59-.37,1.5.3.73.98,1.01,1.59,1.01.15,0,.3-.02.44-.05l.23-.03c.34,0,.03.38.3.84.32.53.21,1.12.27,1.92.05.8-.53,2.08.21,2.3l.26.04c.59,0,1-.65,1.98-1.59,1.12-1.07.96-.75,2.08-1.61,1.12-.85,1.18-1.92,1.92-2.78.2-.22.33-.32.42-.32.25,0,.17.75.33,1.5.21,1.02,1.12.48,1.82.86.69.37,1.12,1.07.96,2.19-.16,1.12-.64,1.55-1.55,2.99-.91,1.44,1.66,2.57,1.39,3.26-.27.7-1.92,1.39-2.67,3.15-.75,1.76-1.66,2.51-2.89,3.21-1.23.7-1.02,1.5-1.66,3.42-.64,1.93-.91,1.98-3.53,3.31-2.62,1.34-1.71,4.06-1.18,5.08.54,1.01,2.19.21,2.25,1.33.05,1.06-.47,1.83-1.2,1.83h-.14c-.8-.12-2.03-.81-3.26-1.5-.23-.13-.4-.19-.54-.19-.59,0-.51,1.03-1.6,1.47-1.34.53-4.65,1.87-6.52,2.94-1.87,1.07-2.3,2.51-2.46,3.79-.16,1.28-.05,3.31-1.12,4.76-1.07,1.44-1.02,1.93-1.39,3.21-.37,1.28.05,1.12-1.07,2.41-1.12,1.28.16,1.02.22,1.76.05.75-1.34.96-2.51,1.12-1.17.16-2.24,2.56-3.58,3.58-1.34,1.02-1.55,1.66-2.83,2.46-1.28.8-2.46.59-3.9,1.07-.72.24-1.34.39-1.86.39s-.97-.15-1.34-.49c-.75-.69-1.39-.38-3.31-.59-1.93-.21-1.34-2.24-2.14-2.24-.74,0-2.13.6-2.67.6h-.11c-.43-.12-.91-.49-.75-1.08.16-.59-.05-.48-1.02-1.23-.18-.14-.38-.2-.57-.2-.83,0-1.75,1.06-2.53,1.27-.2.06-.43.08-.67.08-.91,0-2.06-.35-3.29-.78-1.55-.53-1.12-1.02-1.76-1.6-.64-.59-1.02-1.6-.48-2.3.53-.69.59-1.44,1.6-2.94,1.02-1.5,2.3-4.27,4.27-5.72,1.98-1.44,2.03-2.24,4.17-3.69,2.14-1.44,3.58-3.48,5.08-4.76.97-.83,1.51-1.08,1.95-1.08.24,0,.44.07.67.17.11.04.21.06.31.06.51,0,1.02-.53,2.31-1.29,1.55-.91,2.94-2.24,4.6-2.35,1.66-.11,1.71-.86,2.78-1.92,1.07-1.07,1.82-1.34,3.05-2.3,1.23-.96,1.28-1.76,3.74-2.89,2.46-1.12,3.37-2.62,4.6-4.97,1.23-2.35,1.76-5.67,1.76-6.3s1.55.1,2.78-1.02c1.23-1.12,2.35-2.52,2.56-3.9.21-1.39-.64-3.85.37-4.38,1.02-.53,2.03-1.18,3.21-2.88.45-.65,1.02-.85,1.56-.85M233.83,122.01l-.14.1h0c.08.82.17,1.74.03,2.68-.31,2.01-1.54,4.01-3.66,5.94-.67.61-1.38.99-2.04,1.22-.34,1.58-.91,3.51-1.77,5.15-1.43,2.74-2.8,4.96-6.24,6.52-1.02.47-1.24.7-1.68,1.17-.31.34-.74.8-1.36,1.29-.59.46-1.09.79-1.49,1.06-.52.35-.84.56-1.24.96-.15.15-.29.32-.44.5-.89,1.09-2.05,2.27-4.58,2.43-.28.04-1.07.58-1.6.94-.44.3-.93.63-1.47.95-.37.22-.67.42-.95.61-.77.52-1.73,1.16-3.12,1.16-.2,0-.4-.01-.6-.04l-.06.05c-.43.37-.92.89-1.45,1.45-1.02,1.09-2.3,2.44-3.94,3.55-.81.54-1.14.9-1.64,1.44-.55.58-1.23,1.3-2.42,2.18-.91.66-1.8,2.16-2.52,3.36-.32.53-.62,1.04-.93,1.5-.39.57-.55.95-.75,1.38l-.11.25.03.05c.82.27,1.3.4,1.59.46l.04-.02c.75-.52,1.89-1.3,3.44-1.3.99,0,1.92.32,2.71.93.18.14.33.24.44.32.36.24.66.5.9.76.34-.06.7-.1,1.06-.1.96,0,2.59.33,3.55,2.33h.22c.88.03,2.14.06,3.4.91.1-.03.23-.07.39-.12.85-.28,1.59-.4,2.18-.49.59-.09.82-.13.97-.23.35-.22.51-.38.86-.74.38-.39.9-.92,1.71-1.54.2-.15.65-.74.91-1.1.81-1.06,1.79-2.34,3.29-2.91.29-.99.9-1.69,1.16-1.98l.12-.14c.05-.24.11-.56.23-.95.06-.22.11-.42.16-.59.3-1.18.61-2.14,1.78-3.72.24-.33.32-1.4.37-2.04.03-.39.06-.75.1-1.07.13-1.06.54-4.3,4.19-6.39,1.38-.79,3.49-1.76,6.46-2.95.67-1,1.47-1.5,2.2-1.74-.05-.78.02-1.63.3-2.49.53-1.67,1.69-3,3.37-3.85l.37-.19c.49-.25,1-.51,1.27-.67.04-.09.09-.24.16-.45.14-.42.23-.78.32-1.13.3-1.19.75-2.99,2.93-4.23.72-.41,1.01-.63,1.39-1.53.38-.91.89-1.63,1.39-2.21-.62-1.17-.7-2.23-.51-3.13-.22.21-.4.4-.56.57-.75.78-1.89,1.96-3.8,1.96-.41,0-.82-.06-1.22-.17-1.04-.3-3.41-1.42-2.78-5.32v-.03c-.33-.16-.64-.35-.93-.57Z" style="fill: #f16824;"/>
  <path d="M237.29,55.7c.33,0,.4.13.69.13.3,0,.32.4.19,1.07-.13.67-.27,1.56.27,2.49.54.94,1.29.8,1.87,1.16.58.36.76.22,2.32.85,1.56.62,3.3,1.07,4.01,1.51.71.45.53.27,1.38.89.85.62.36.58.89,1.29.53.71.62.85,1.02,1.51.4.67.27.8.62,1.83.36,1.03.09,1.2-.13,1.83-.22.62-.36.58-.09,1.29.27.71,1.2,1.91,1.78,2.54.58.62.18.75.18,1.42s-.13.76-.45,1.65c-.31.89,1.02,2.94,1.69,3.16.67.22.67.17,1.03.49.36.31.58.31,1.47.53.89.22.67,1.56.85,2.09.08.25.37.35.71.35.39,0,.85-.14,1.16-.35.58-.4.13-.71-.22-1.56-.36-.85-.31-.53-.22-1.47.09-.93-.31-.89-.18-1.56.13-.67-.09-.54-.89-1.07-.7-.47-.38-1.5.29-1.5.1,0,.21.02.33.07.89.4,1.47,2.05,1.6,2.54.04.14.17.18.35.18.15,0,.33-.03.51-.06.17-.03.34-.06.46-.06s.2.03.2.13c0,.4-.31.4-.05.71.27.31.76.67.62,1.91-.13,1.24.49,3.43.89,4.45.4,1.02,1.16,1.2,1.78,1.65.62.45,1.91,1.65,4.77,2.94,1.4.63,2.61.88,3.58.88s1.77-.27,2.2-.66c.85-.76.98-1.69,2.05-2.36,1.07-.67.8-.27,2.32-1.29.59-.4,1.03-.54,1.37-.54.54,0,.86.34,1.21.59.58.4.53.49,1.42.84.89.36-.27,1.42-.93,2.67-.67,1.25-.67,3.61-.98,5.43-.31,1.83-.85,2-2.18,2.58-1.34.58-.98,2.36-.89,2.98.08.55.33,1.48-.1,1.48l-.21-.05c-.71-.31-.22-.76-.85-.98-.21-.07-.42-.1-.64-.1-.44,0-.93.1-1.49.1-.85,0-1.69.04-3.29,1.16-1.6,1.11-1.52,2.98-1.2,4.05.31,1.07,1.52.4,1.11,1.16-.4.75-.22.71-1.69,3.43-1.47,2.72-2.67,3.61-3.92,4.99-1.25,1.38-2.13,2.72-2.89,4.5-.76,1.78-2.98,3.47-4.1,4.23-1.02.69-1.74,1.49-2.56,1.49l-.24-.02c-.94-.18-.22-1.87-1.03-2.31-.15-.09-.29-.12-.41-.12-.52,0-.82.63-1.32.7h-.11c-.5,0-.39-.61-.47-1.07-.02-.12-.06-.17-.11-.17-.16,0-.5.43-1.14.43-.84,0-1.2-1.07-.62-1.29.58-.22.84-1.03,1.38-1.47.54-.44.45-.31.85-.84.4-.53.84-1.56,1.78-2.98.94-1.43,1.47-4.72.07-6.53-1.39-1.81-3.12-1.84-3.86-1.93-.74-.09-1.6-.5-2.4-1.87-.44-.76-1.17-.9-1.81-.9-.2,0-.39.01-.56.03-.17.01-.32.03-.44.03l-.17-.02c-.44-.12-.65-.42-1.39-1.04-.74-.62-.89-2.38-.09-2.97.8-.59,2.02-1.31,2.73-1.66.71-.36.95-.42,2.31-.48,1.37-.06,1.48-2.43,1.48-4.39s.89-2.2.95-3.27c.06-1.07.34-1.59.34-2.4s.73-.59,1.03-1.1c.29-.51-.88-2.49-1.61-4.32-.73-1.83-1.25-2.78-1.76-4.62-.51-1.83-2.78-3.81-3.74-6.08-.95-2.27-6.52-9.15-7.11-9.89-.59-.73-.66-1.1,0-1.1s.44-1.1-.29-2.42c-.73-1.32-2.42-3.08-3.66-3.88-1.2-.77-.43-1.62-.05-1.62h.05c.25.05.4.21.81.21.2,0,.45-.03.8-.13.37-.1.6-.13.77-.13M243.91,65.55c1.31,1.69,2.28,3.01,3.01,4.05.04-.13.09-.25.15-.38l.03-.08c-.11-.35-.17-.62-.22-.81-.29-.49-.34-.55-.78-1.14-.23-.3-.39-.58-.52-.83l-.18-.11c-.13-.08-.3-.17-.59-.35-.16-.08-.53-.21-.91-.34ZM256,87.01c.61,1.49.93,2.94.08,4.41-.22.38-.48.69-.73.94l-.05.25c-.06.3-.11.5-.12.76-.07,1.24-.53,2.07-.81,2.57l-.12.22s-.02.08-.02.28c0,6.74-2.8,7.67-4.29,7.83.88.55,1.43,1.27,1.74,1.8l.13.21c1.18.13,3.81.53,5.89,3.23,2.58,3.35,1.57,8.28.08,10.57-.44.67-.75,1.23-1.03,1.73l-.06.1.04.02c.31.17.57.36.8.57,1.22-.92,2.03-1.81,2.23-2.27.88-2.06,1.96-3.75,3.51-5.47.31-.34.61-.65.91-.96.9-.93,1.61-1.66,2.53-3.35.25-.47.45-.85.61-1.16-.15-.29-.25-.56-.31-.8-.9-3.09.1-6.19,2.56-7.89,2.35-1.64,3.95-1.78,5.27-1.78.56-1.85,1.87-2.73,2.81-3.14l.14-.06h.02c.07-.46.13-.99.19-1.55.06-.6.13-1.21.22-1.81-.27.39-.63.84-1.12,1.29-1.11,1-2.72,1.54-4.53,1.54-1.59,0-3.28-.4-5.02-1.19-2.74-1.24-4.27-2.43-5.09-3.07-.11-.08-.2-.15-.27-.21l-.19-.11c-.67-.39-2.06-1.19-2.81-3.1,0-.03-.06-.15-.13-.35-.48.13-.99.2-1.48.2-.56,0-1.09-.09-1.57-.27Z" style="fill: #f16824;"/>
  <polygon points="172.17 58.15 159.3 98.54 145.3 58.15 138.42 58.15 124.83 98.54 111.63 58.15 99.79 58.15 120.35 114.14 129.31 114.14 141.94 78.86 154.82 114.14 163.78 114.14 183.08 58.15 172.17 58.15" style="fill: #fff;"/>
  <path d="M226.32,85.18c5.2-2.32,7.28-6.48,7.28-10.8,0-11.28-8.24-16.24-19.28-16.24h-24.53v55.99h24.53c11.6,0,20.96-4,20.96-16.48,0-3.52-2.4-10.48-8.96-12.48ZM198.48,67.75h15.84c6.72,0,8.8,4.32,8.8,6.88,0,3.2-2.16,6-8.8,6h-15.84v-12.88ZM214.32,104.3h-15.84v-14.4h15.84c4.32,0,10.48,2.64,10.48,7.68s-6.16,6.72-10.48,6.72Z" style="fill: #fff;"/>
</svg>